<svg xmlns="http://www.w3.org/2000/svg" width="460" height="460" viewBox="0 0 460 460">
  <defs>
    <style>
      .cls-1 {
        fill: #6581cd;
      }

      .cls-2 {
        fill: #ffb275;
      }

      .cls-3 {
        fill: #ffd388;
      }

      .cls-4 {
        fill: #ffeacf;
      }

      .cls-5, .cls-7 {
        fill: #f0cab4;
      }

      .cls-6 {
        fill: #fff;
      }

      .cls-7 {
        opacity: 0.8;
      }
    </style>
  </defs>
  <g id="Group_40" data-name="Group 40" transform="translate(-730 -257)">
    <circle id="Ellipse_2" data-name="Ellipse 2" class="cls-1" cx="230" cy="230" r="230" transform="translate(730 257)"/>
    <path id="Subtraction_6" data-name="Subtraction 6" class="cls-2" d="M-1849.77,160a229.529,229.529,0,0,1-75.353-12.629A229.091,229.091,0,0,1-1990,112.32c7.622-12.034,22.5-22.838,43.022-31.245,20.665-8.465,45.982-14.047,73.212-16.143A24.611,24.611,0,0,0-1849.27,89a24.612,24.612,0,0,0,24.5-24.068c27.031,2.081,52.2,7.6,72.783,15.97,20.434,8.305,35.345,18.991,43.12,30.9a229.108,229.108,0,0,1-65.139,35.427A229.5,229.5,0,0,1-1849.77,160Z" transform="translate(2809.769 557)"/>
    <path id="Subtraction_43" data-name="Subtraction 43" class="cls-3" d="M54.134,0C40.563,0,28.548,2.15,19.387,6.219A39.419,39.419,0,0,0,7.787,13.8a25.468,25.468,0,0,0-6.6,10.4c-1.8,5.544-1.543,11.609.766,18.026a27.189,27.189,0,0,1,3.606-.245,24.381,24.381,0,0,1,7.132,1.051c12.05,3.684,20.474,16.6,23.721,36.377A162.009,162.009,0,0,0,55.1,89.66,187.091,187.091,0,0,0,76.534,98.1c17.516,5.691,35.306,8.7,51.447,8.7,13.571,0,25.587-2.151,34.747-6.219A39.419,39.419,0,0,0,174.328,93a25.465,25.465,0,0,0,6.6-10.395c1.961-6.035,1.487-12.661-1.409-19.694-2.8-6.794-7.724-13.68-14.645-20.467a125.74,125.74,0,0,0-25.455-18.862A179.123,179.123,0,0,0,105.582,8.7C88.066,3.009,70.276,0,54.134,0Z" transform="translate(1084.55 618.998) rotate(180)"/>
    <path id="Subtraction_44" data-name="Subtraction 44" class="cls-3" d="M-1848.348,237.511c-13.571,0-25.586-2.15-34.747-6.219a39.419,39.419,0,0,1-11.6-7.583,25.468,25.468,0,0,1-6.6-10.4c-1.8-5.544-1.543-11.609.766-18.026a27.189,27.189,0,0,0,3.606.245,24.381,24.381,0,0,0,7.132-1.051c12.05-3.684,20.474-16.6,23.721-36.377a162.009,162.009,0,0,1,18.689-10.255,187.091,187.091,0,0,1,21.437-8.439c17.516-5.691,35.306-8.7,51.447-8.7,13.571,0,25.587,2.151,34.747,6.219a39.419,39.419,0,0,1,11.6,7.583,25.465,25.465,0,0,1,6.6,10.395c1.961,6.035,1.487,12.661-1.409,19.694-2.8,6.794-7.724,13.68-14.645,20.467a125.74,125.74,0,0,1-25.455,18.862,179.128,179.128,0,0,1-33.842,14.879C-1814.416,234.5-1832.206,237.511-1848.348,237.511Z" transform="translate(2739.915 381.487)"/>
    <ellipse id="Ellipse_151" data-name="Ellipse 151" class="cls-3" cx="130.5" cy="145.5" rx="130.5" ry="145.5" transform="translate(830 319)"/>
    <ellipse id="Ellipse_152" data-name="Ellipse 152" class="cls-4" cx="92" cy="115.5" rx="92" ry="115.5" transform="translate(868 349)"/>
    <ellipse id="Ellipse_154" data-name="Ellipse 154" class="cls-3" cx="28" cy="60" rx="28" ry="60" transform="matrix(0.629, 0.777, -0.777, 0.629, 943.008, 317.481)"/>
    <ellipse id="Ellipse_155" data-name="Ellipse 155" class="cls-3" cx="28" cy="88" rx="28" ry="88" transform="translate(1087.704 426.538) rotate(133)"/>
    <ellipse id="Ellipse_156" data-name="Ellipse 156" class="cls-1" cx="10" cy="9.5" rx="10" ry="9.5" transform="translate(908 455)"/>
    <ellipse id="Ellipse_157" data-name="Ellipse 157" cx="8" cy="7.5" rx="8" ry="7.5" transform="translate(995 457)"/>
    <ellipse id="Ellipse_161" data-name="Ellipse 161" class="cls-5" cx="10" cy="2" rx="10" ry="2" transform="translate(952 500)"/>
    <ellipse id="Ellipse_164" data-name="Ellipse 164" class="cls-1" cx="10" cy="9.5" rx="10" ry="9.5" transform="translate(993 455)"/>
    <path id="Subtraction_48" data-name="Subtraction 48" class="cls-5" d="M-1989.931,20h0c-.045-.557-.068-1.118-.068-1.667a18.962,18.962,0,0,1,4.979-12.963A16.291,16.291,0,0,1-1973,0a16.292,16.292,0,0,1,12.021,5.37A18.962,18.962,0,0,1-1956,18.333c0,.552-.023,1.109-.069,1.658-.8-9.5-8.078-16.658-16.932-16.658S-1989.137,10.5-1989.931,20Z" transform="translate(2891 453)"/>
    <path id="Subtraction_49" data-name="Subtraction 49" class="cls-5" d="M-1989.931,20h0c-.045-.557-.068-1.118-.068-1.667a18.962,18.962,0,0,1,4.979-12.963A16.291,16.291,0,0,1-1973,0a16.292,16.292,0,0,1,12.021,5.37A18.962,18.962,0,0,1-1956,18.333c0,.552-.023,1.109-.069,1.658-.8-9.5-8.078-16.658-16.932-16.658S-1989.137,10.5-1989.931,20Z" transform="translate(2976 453)"/>
    <circle id="Ellipse_169" data-name="Ellipse 169" class="cls-6" cx="4" cy="4" r="4" transform="translate(909 457)"/>
    <circle id="Ellipse_170" data-name="Ellipse 170" class="cls-6" cx="4" cy="4" r="4" transform="translate(993 457)"/>
    <path id="Subtraction_57" data-name="Subtraction 57" class="cls-4" d="M-1897.5,284a19.373,19.373,0,0,1-13.789-5.712A19.373,19.373,0,0,1-1917,264.5V228.529a75.85,75.85,0,0,0,19,2.422,75.845,75.845,0,0,0,20-2.689V264.5a19.373,19.373,0,0,1-5.711,13.789A19.371,19.371,0,0,1-1897.5,284Z" transform="translate(2858 356)"/>
    <path id="Subtraction_121" data-name="Subtraction 121" class="cls-7" d="M-2034-1537a21.185,21.185,0,0,1-9.9-2.223c-2.645-1.434-4.1-3.34-4.1-5.367,0-.057,0-.115,0-.173,3.1,1.968,8.334,3.143,14,3.143s10.894-1.175,14-3.143c0,.066,0,.122,0,.173,0,2.027-1.456,3.933-4.1,5.367A21.185,21.185,0,0,1-2034-1537Z" transform="translate(2996 2081)"/>
    <path id="Subtraction_122" data-name="Subtraction 122" class="cls-6" d="M-2021-1532c-7.212,0-13.992-1.3-19.092-3.655s-7.908-5.491-7.908-8.823c0-.094,0-.19.006-.285,5.982,3.236,16.073,5.167,26.994,5.167s21.01-1.932,26.993-5.167c.005.108.007.2.007.284,0,3.333-2.808,6.466-7.908,8.823S-2013.788-1532-2021-1532Z" transform="translate(2983 2072)"/>
  </g>
</svg>
