<svg id="united-kingdom" xmlns="http://www.w3.org/2000/svg" width="170.243" height="113.498" viewBox="0 0 170.243 113.498">
  <defs>
    <style>
      .cls-1 {
        fill: #fafafa;
      }

      .cls-2 {
        fill: #d80027;
      }

      .cls-3 {
        fill: #0052b4;
      }

      .cls-4 {
        fill: #f0f0f0;
      }
    </style>
  </defs>
  <path id="Path_66" data-name="Path 66" class="cls-1" d="M0,0H170.243V113.5H0Z" transform="translate(0 0.001)"/>
  <path id="Path_37" data-name="Path 37" class="cls-2" d="M95.762,85.33H74.481v46.107H0v21.28H74.481v46.107h21.28V152.718h74.481v-21.28H95.762Z" transform="translate(0 -85.33)"/>
  <g id="Group_24" data-name="Group 24" transform="translate(103.626 76.486)">
    <path id="Path_38" data-name="Path 38" class="cls-3" d="M393.785,315.358,433.092,337.2V315.358Z" transform="translate(-366.475 -315.358)"/>
    <path id="Path_39" data-name="Path 39" class="cls-3" d="M311.652,315.358l66.617,37.009V341.9L330.49,315.358Z" transform="translate(-311.652 -315.358)"/>
    <path id="Path_40" data-name="Path 40" class="cls-3" d="M360.524,372.152,311.652,345v27.154Z" transform="translate(-311.652 -335.143)"/>
  </g>
  <path id="Path_41" data-name="Path 41" class="cls-4" d="M311.652,315.358l66.617,37.009V341.9L330.49,315.358Z" transform="translate(-208.026 -238.872)"/>
  <path id="Path_42" data-name="Path 42" class="cls-2" d="M311.652,315.358l66.617,37.009V341.9L330.49,315.358Z" transform="translate(-208.026 -238.872)"/>
  <g id="Group_25" data-name="Group 25" transform="translate(0 76.485)">
    <path id="Path_43" data-name="Path 43" class="cls-3" d="M30.039,315.356,0,332.044V315.356Z" transform="translate(0 -315.356)"/>
    <path id="Path_44" data-name="Path 44" class="cls-3" d="M83.632,329.51v32.3H25.491Z" transform="translate(-17.015 -324.804)"/>
  </g>
  <path id="Path_45" data-name="Path 45" class="cls-2" d="M47.779,315.358,0,341.9v10.465H0l66.617-37.009Z" transform="translate(0 -238.872)"/>
  <g id="Group_26" data-name="Group 26">
    <path id="Path_46" data-name="Path 46" class="cls-3" d="M39.307,152.8,0,130.958V152.8Z" transform="translate(0 -115.786)"/>
    <path id="Path_47" data-name="Path 47" class="cls-3" d="M66.617,122.339,0,85.33V95.8l47.779,26.544Z" transform="translate(0 -85.33)"/>
    <path id="Path_48" data-name="Path 48" class="cls-3" d="M53.366,85.33l48.872,27.154V85.33Z" transform="translate(-35.621 -85.33)"/>
  </g>
  <path id="Path_49" data-name="Path 49" class="cls-4" d="M66.617,122.339,0,85.33V95.8l47.779,26.544Z" transform="translate(0 -85.33)"/>
  <path id="Path_50" data-name="Path 50" class="cls-2" d="M66.617,122.339,0,85.33V95.8l47.779,26.544Z" transform="translate(0 -85.33)"/>
  <g id="Group_27" data-name="Group 27" transform="translate(103.626 0)">
    <path id="Path_51" data-name="Path 51" class="cls-3" d="M421.659,163.134,451.7,146.446v16.688Z" transform="translate(-385.081 -126.125)"/>
    <path id="Path_52" data-name="Path 52" class="cls-3" d="M311.652,117.634v-32.3h58.141Z" transform="translate(-311.652 -85.331)"/>
  </g>
  <path id="Path_53" data-name="Path 53" class="cls-2" d="M330.49,122.339,378.269,95.8V85.33h0l-66.617,37.009Z" transform="translate(-208.026 -85.33)"/>
</svg>
